<?xml version="1.0" standalone="no"?><!DOCTYPE svg PUBLIC "-//W3C//DTD SVG 1.1//EN" "http://www.w3.org/Graphics/SVG/1.1/DTD/svg11.dtd"><svg t="1616327795453" class="icon" viewBox="0 0 1024 1024" version="1.1" xmlns="http://www.w3.org/2000/svg" p-id="5481" xmlns:xlink="http://www.w3.org/1999/xlink" width="200" height="200"><defs><style type="text/css"></style></defs><path d="M943.36 258.13c-8.35-8.34-19.63-13.03-31.43-13.03H778.47V111.38c1.19-10.94-2.09-21.9-9.19-30.32a39.73 39.73 0 0 0-28.21-14.24h-637.2c-10.96 0.65-21.19 5.79-28.21 14.24-7.1 8.42-10.47 19.38-9.11 30.32v806.69c-0.08 21.16 16.24 38.71 37.31 40.11h808.06c11.8 0 23.08-4.73 31.43-13.1 8.41-8.34 13.07-19.69 13.07-31.45v-624c0.01-11.78-4.65-23.14-13.06-31.5zM200.01 557.04h311.44v89.15H200.01v-89.15z m444.9 267.44h-444.9v-89.15h444.9v89.15z m0-445.71h-444.9V200.49h444.9v178.28z m222.52 490.28h-88.95V334.27h88.95v534.78z" p-id="5482" fill="#8a8a8a"></path></svg>