<?xml version="1.0" standalone="no"?><!DOCTYPE svg PUBLIC "-//W3C//DTD SVG 1.1//EN" "http://www.w3.org/Graphics/SVG/1.1/DTD/svg11.dtd"><svg t="1616328023368" class="icon" viewBox="0 0 1024 1024" version="1.1" xmlns="http://www.w3.org/2000/svg" p-id="6993" xmlns:xlink="http://www.w3.org/1999/xlink" width="200" height="200"><defs><style type="text/css"></style></defs><path d="M670.563 0.875c-2.625 0-188-0.375-318.375-0.625-2-0.125-4-0.25-6-0.25h-172c-41 0-74.25 33.25-74.25 74.25v875.5c0 41 33.25 74.25 74.25 74.25h675.625c41 0 74.25-33.25 74.25-74.25V320v-64L670.563 0.875z m0 63.125l190.25 192H733.938c-35 0-63.375-28.625-63.375-64V64z m-348.75 704c-17.5 0-31.75-14.375-31.75-32s14.25-32 31.75-32h380.375c17.5 0 31.75 14.375 31.75 32s-14.25 32-31.75 32H321.813z m380.375-256c17.5 0 31.75 14.375 31.75 32s-14.25 32-31.75 32H321.813c-17.5 0-31.75-14.375-31.75-32s14.25-32 31.75-32h380.375z" p-id="6994" fill="#8a8a8a"></path></svg>