<?xml version="1.0" standalone="no"?><!DOCTYPE svg PUBLIC "-//W3C//DTD SVG 1.1//EN" "http://www.w3.org/Graphics/SVG/1.1/DTD/svg11.dtd"><svg t="1616328679822" class="icon" viewBox="0 0 1024 1024" version="1.1" xmlns="http://www.w3.org/2000/svg" p-id="17270" xmlns:xlink="http://www.w3.org/1999/xlink" width="200" height="200"><defs><style type="text/css"></style></defs><path d="M751.36 908.63a4.096 4.096 0 0 1-4.096 4.18H111.531a4.096 4.096 0 0 1-4.267-4.18V272.895c0-2.304 1.963-4.096 4.267-4.096h635.733a4.096 4.096 0 0 1 4.096 4.096v635.733z m107.35-635.734c0-61.525-49.92-111.445-111.446-111.445H111.531C49.835 161.45 0 211.37 0 272.896v635.733c0 61.611 49.92 111.531 111.445 111.531H747.18c61.61 0 111.53-49.92 111.53-111.53V272.895zM912.383 0.426c59.307 0 107.35 48.043 107.35 107.35v590.25a53.675 53.675 0 0 1-107.35 0v-590.25H322.048a53.675 53.675 0 0 1 0-107.35z m-304.64 371.798c18.347-18.432 42.923-18.432 61.27 0l6.143 6.144a55.723 55.723 0 0 1 0 61.27L393.045 721.92c-6.144 12.288-18.432 12.288-30.72 12.288l-3.498-0.085a38.997 38.997 0 0 1-27.136-12.203l-147.2-147.285c-18.432-18.432-18.432-42.923 0-61.355l6.144-6.144c18.346-18.432 42.922-18.432 61.269 0l110.421 116.65z" p-id="17271" fill="#8a8a8a"></path></svg>